<svg width="52" height="54" viewBox="0 0 52 54" fill="none" xmlns="http://www.w3.org/2000/svg">
<path fill-rule="evenodd" clip-rule="evenodd" d="M26.412 44.7959C28.839 43.5522 41.1667 36.6493 41.1667 24.75C41.1667 16.0515 34.3763 9 26 9C17.6237 9 10.8333 16.0515 10.8333 24.75C10.8333 36.6493 23.161 43.5522 25.5881 44.7959C25.8504 44.9303 26.1496 44.9303 26.412 44.7959ZM26 31.5C29.5899 31.5 32.5 28.4779 32.5 24.75C32.5 21.0221 29.5899 18 26 18C22.4102 18 19.5 21.0221 19.5 24.75C19.5 28.4779 22.4102 31.5 26 31.5Z" fill="#222222"/>
</svg>
