<svg width="34" height="33" viewBox="0 0 34 33" fill="none" xmlns="http://www.w3.org/2000/svg">
<path d="M0 33L2.40132 24.5259C0.919534 22.0454 0.140919 19.2335 0.142343 16.3501C0.146613 7.33562 7.7406 0 17.0712 0C21.5991 0.001375 25.8494 1.705 29.0465 4.796C32.2421 7.887 34.0014 11.9955 34 16.3652C33.9957 25.3811 26.4017 32.7168 17.0712 32.7168C14.2385 32.7154 11.4472 32.0293 8.97471 30.7257L0 33ZM9.39035 27.7654C11.776 29.1335 14.0535 29.953 17.0655 29.9544C24.8203 29.9544 31.1375 23.8576 31.1418 16.3625C31.1446 8.85225 24.8573 2.76375 17.0769 2.761C9.31633 2.761 3.00343 8.85775 3.00059 16.3515C2.99916 19.4109 3.92724 21.7016 5.48589 24.0982L4.06389 29.1143L9.39035 27.7654ZM25.5989 20.2524C25.4936 20.0819 25.2118 19.9801 24.7876 19.7752C24.3648 19.5704 22.2852 18.5818 21.8966 18.4456C21.5094 18.3095 21.2276 18.2407 20.9443 18.6505C20.6625 19.0589 19.8511 19.9801 19.6049 20.2524C19.3586 20.5246 19.1109 20.559 18.6882 20.3541C18.2654 20.1493 16.9018 19.7189 15.2862 18.326C14.0293 17.2425 13.1795 15.9046 12.9333 15.4949C12.687 15.0865 12.9076 14.8651 13.1183 14.6616C13.309 14.4788 13.5411 14.1845 13.7532 13.9453C13.9681 13.7088 14.0378 13.5382 14.1802 13.2646C14.3211 12.9924 14.2514 12.7531 14.1446 12.5483C14.0378 12.3448 13.1923 10.3331 12.8407 9.515C12.4963 8.71887 12.1475 8.82613 11.8885 8.81375L11.0771 8.8C10.7953 8.8 10.3369 8.90175 9.94976 9.3115C9.56259 9.72125 8.4694 10.7085 8.4694 12.7201C8.4694 14.7318 9.98535 16.6746 10.196 16.9469C10.4081 17.2191 13.1781 21.3469 17.4213 23.1165C18.4305 23.5373 19.2191 23.7889 19.8326 23.9772C20.8461 24.288 21.7685 24.244 22.4973 24.1395C23.3101 24.0226 24.9997 23.1509 25.3527 22.1966C25.7057 21.241 25.7057 20.4229 25.5989 20.2524Z" fill="#212121"/>
</svg>
